<svg width="67" height="27" viewBox="0 0 67 27" fill="none" xmlns="http://www.w3.org/2000/svg">
<path d="M1.9375 26.4883C1.48177 26.4883 1.13021 26.3516 0.882812 26.0781C0.635417 25.8177 0.511719 25.4857 0.511719 25.082C0.511719 24.5352 0.733073 23.8125 1.17578 22.9141C1.60547 22.0156 2.09375 21.0195 2.64062 19.9258C3.1875 18.819 3.72135 17.7513 4.24219 16.7227C4.77604 15.694 5.21224 14.8346 5.55078 14.1445L11.9961 1.46875C12.1523 1.13021 12.4583 0.830729 12.9141 0.570312C13.3698 0.296875 13.8255 0.160156 14.2812 0.160156C14.8542 0.160156 15.2513 0.270833 15.4727 0.492188C15.694 0.700521 15.8047 0.960938 15.8047 1.27344C15.8047 1.5599 15.7331 1.86589 15.5898 2.19141C15.4466 2.50391 15.2839 2.79688 15.1016 3.07031C14.0339 4.90625 12.9727 6.8724 11.918 8.96875C10.8633 11.0651 9.75651 13.0768 8.59766 15.0039C9.09245 14.5221 9.6263 14.0404 10.1992 13.5586C10.7721 13.0638 11.4167 12.6471 12.1328 12.3086C12.849 11.9701 13.6693 11.8008 14.5938 11.8008C15.4531 11.8008 16.1888 11.9701 16.8008 12.3086C17.4128 12.6471 17.7188 13.2591 17.7188 14.1445C17.7188 14.9779 17.5365 15.7396 17.1719 16.4297C16.8073 17.1198 16.3776 17.7708 15.8828 18.3828C15.401 18.9818 14.9518 19.6003 14.5352 20.2383C14.1185 20.8763 13.8711 21.5729 13.793 22.3281V22.4062L13.7734 22.4844C13.7734 22.7448 13.8581 22.9076 14.0273 22.9727C14.2096 23.0378 14.4375 23.0703 14.7109 23.0703C15.2448 23.0703 15.8177 22.9271 16.4297 22.6406C17.0547 22.3411 17.6797 21.9766 18.3047 21.5469C18.9167 21.1172 19.4831 20.6745 20.0039 20.2188C20.5378 19.763 20.9674 19.3789 21.293 19.0664C21.5143 18.8581 21.7617 18.7539 22.0352 18.7539C22.2695 18.7539 22.4648 18.8451 22.6211 19.0273C22.7904 19.1966 22.875 19.431 22.875 19.7305C22.875 20.0039 22.7773 20.3164 22.582 20.668C22.3997 21.0195 22.0807 21.3711 21.625 21.7227C20.6875 22.5299 19.7174 23.2982 18.7148 24.0273C17.7253 24.7565 16.7227 25.349 15.707 25.8047C14.7044 26.2604 13.7148 26.4883 12.7383 26.4883C11.8138 26.4883 11.0716 26.2799 10.5117 25.8633C9.95182 25.4336 9.67188 24.763 9.67188 23.8516C9.67188 22.9531 9.8737 22.0938 10.2773 21.2734C10.694 20.4531 11.1562 19.6914 11.6641 18.9883C12.1849 18.2852 12.6016 17.6667 12.9141 17.1328C13.0703 16.9115 13.1875 16.7096 13.2656 16.5273C13.3568 16.332 13.4023 16.1237 13.4023 15.9023C13.4023 15.4596 13.1875 15.2383 12.7578 15.2383C11.7422 15.2383 10.8242 15.5573 10.0039 16.1953C9.19661 16.8203 8.46094 17.5951 7.79688 18.5195C7.14583 19.431 6.54688 20.3164 6 21.1758C5.73958 21.5794 5.46615 22.0742 5.17969 22.6602C4.89323 23.2461 4.57422 23.8451 4.22266 24.457C3.89714 25.0299 3.53906 25.5117 3.14844 25.9023C2.75781 26.293 2.35417 26.4883 1.9375 26.4883ZM23.0414 26.4883C22.5206 26.4883 21.9281 26.3451 21.2641 26.0586C20.613 25.7852 20.0466 25.3424 19.5648 24.7305C19.0831 24.1185 18.8422 23.3112 18.8422 22.3086C18.8422 21.5013 19.031 20.5117 19.4086 19.3398C19.7992 18.168 20.3917 17.0091 21.1859 15.8633C21.9932 14.7044 23.0284 13.7409 24.2914 12.9727C25.5544 12.1914 27.0193 11.8008 28.6859 11.8008C29.35 11.8008 30.0531 11.9245 30.7953 12.1719C31.5505 12.4193 32.1951 12.8359 32.7289 13.4219C33.2628 13.9948 33.5297 14.7891 33.5297 15.8047C33.5297 16.638 33.3214 17.6081 32.9047 18.7148C33.1391 19.0013 33.4711 19.1445 33.9008 19.1445C34.3044 19.1445 34.7732 18.9818 35.307 18.6562C35.8409 18.3307 36.3682 17.9336 36.8891 17.4648C37.4229 16.9961 37.9047 16.5273 38.3344 16.0586C38.7771 15.5898 39.1221 15.2122 39.3695 14.9258C39.4607 14.8346 39.5714 14.7891 39.7016 14.7891C39.988 14.7891 40.1964 14.9714 40.3266 15.3359C40.4568 15.7005 40.4307 16.1628 40.2484 16.7227C40.0661 17.2695 39.643 17.8359 38.9789 18.4219C38.5883 18.8385 38.1065 19.3529 37.5336 19.9648C36.9737 20.5638 36.3617 21.0977 35.6977 21.5664C35.0466 22.0221 34.3826 22.25 33.7055 22.25C33.0154 22.25 32.3643 22.0286 31.7523 21.5859C30.7888 23.0964 29.5648 24.2943 28.0805 25.1797C26.5961 26.0521 24.9164 26.4883 23.0414 26.4883ZM24.7406 23.0703C25.5609 23.0703 26.3292 22.7969 27.0453 22.25C27.7615 21.7031 28.3409 21.013 28.7836 20.1797C29.2263 19.3464 29.4477 18.4935 29.4477 17.6211C29.4477 17.2826 29.4086 16.931 29.3305 16.5664C29.2654 16.1888 29.1091 15.8763 28.8617 15.6289C28.6143 15.3685 28.2172 15.2383 27.6703 15.2383C26.863 15.2383 26.1013 15.4987 25.3852 16.0195C24.669 16.5273 24.0831 17.1914 23.6273 18.0117C23.1846 18.819 22.9633 19.6654 22.9633 20.5508C22.9633 20.8763 23.0023 21.2409 23.0805 21.6445C23.1586 22.0352 23.3214 22.3737 23.5688 22.6602C23.8292 22.9336 24.2198 23.0703 24.7406 23.0703ZM39.3992 26.4883C38.9565 26.4883 38.4292 26.3646 37.8172 26.1172C37.2052 25.8698 36.6648 25.4596 36.1961 24.8867C35.7404 24.3138 35.5125 23.5456 35.5125 22.582C35.5125 21.7747 35.6948 20.7656 36.0594 19.5547C36.424 18.3438 36.9969 17.1523 37.7781 15.9805C38.5594 14.7826 39.5555 13.7865 40.7664 12.9922C41.9904 12.1979 43.4031 11.8008 45.0047 11.8008C45.5776 11.8008 46.0789 11.8724 46.5086 12.0156C46.9383 12.1589 47.3029 12.3151 47.6023 12.4844C47.7716 12.5885 47.9279 12.6992 48.0711 12.8164C48.2273 12.9206 48.3706 13.0378 48.5008 13.168L49.1844 12.8359C49.3797 12.7448 49.5815 12.6667 49.7898 12.6016C50.0112 12.5234 50.2 12.4844 50.3563 12.4844C50.851 12.4844 51.2547 12.6211 51.5672 12.8945C51.8797 13.168 52.0359 13.4674 52.0359 13.793C52.0359 13.8971 52.0294 13.9688 52.0164 14.0078C51.9253 14.3724 51.756 14.8737 51.5086 15.5117C51.2742 16.1497 51.0203 16.8594 50.7469 17.6406C50.4734 18.3958 50.2391 19.125 50.0438 19.8281C49.8615 20.5312 49.7703 21.1107 49.7703 21.5664C49.7703 21.957 49.8354 22.2826 49.9656 22.543C50.0958 22.7904 50.3172 22.9141 50.6297 22.9141C51.0073 22.9141 51.5151 22.6992 52.1531 22.2695C52.7911 21.8268 53.4487 21.306 54.1258 20.707C54.4904 20.3815 54.868 20.0365 55.2586 19.6719C55.6492 19.2943 56.0464 18.8971 56.45 18.4805C56.6583 18.3112 56.8602 18.2266 57.0555 18.2266C57.3159 18.2266 57.5307 18.3568 57.7 18.6172C57.8823 18.8646 57.9734 19.1445 57.9734 19.457C57.9734 19.8216 57.8497 20.1276 57.6023 20.375C57.0815 20.8568 56.5477 21.3711 56.0008 21.918C55.4539 22.4648 54.6987 23.1354 53.7352 23.9297C52.8758 24.6328 51.9904 25.2383 51.0789 25.7461C50.1674 26.2409 49.3471 26.4883 48.618 26.4883C47.7065 26.4883 47.0424 26.1367 46.6258 25.4336C46.2091 24.7174 46.0008 23.9557 46.0008 23.1484C46.0008 22.5625 46.0854 22.0417 46.2547 21.5859C45.7208 22.3021 45.0893 23.0443 44.3602 23.8125C43.631 24.5677 42.8432 25.2057 41.9969 25.7266C41.1505 26.2344 40.2846 26.4883 39.3992 26.4883ZM40.9617 23.0508C41.3784 23.0508 41.8992 22.7839 42.5242 22.25C43.1622 21.7161 43.7742 21.0911 44.3602 20.375C45.0112 19.5938 45.5255 18.8841 45.9031 18.2461C46.2807 17.6081 46.4695 17.1784 46.4695 16.957C46.4695 16.4622 46.1831 16.0716 45.6102 15.7852C45.0372 15.4857 44.5229 15.3359 44.0672 15.3359C43.2599 15.3359 42.4917 15.5964 41.7625 16.1172C41.0464 16.638 40.4604 17.3086 40.0047 18.1289C39.549 18.9362 39.3211 19.776 39.3211 20.6484C39.3211 21.1562 39.4122 21.6836 39.5945 22.2305C39.7898 22.7773 40.2456 23.0508 40.9617 23.0508ZM62.1242 10.4922C61.3169 10.4922 60.7505 10.3685 60.425 10.1211C60.0995 9.86068 59.9172 9.52214 59.8781 9.10547C59.8781 8.49349 60.0995 7.89453 60.5422 7.30859C60.9979 6.70964 61.6685 6.41016 62.5539 6.41016C63.3091 6.41016 63.8365 6.5599 64.1359 6.85938C64.4354 7.14583 64.5852 7.51042 64.5852 7.95312C64.5852 8.44792 64.3898 8.99479 63.9992 9.59375C63.6216 10.1927 62.9966 10.4922 62.1242 10.4922ZM57.3391 26.4883C56.2844 26.4883 55.451 26.2214 54.8391 25.6875C54.2401 25.1406 53.9406 24.2943 53.9406 23.1484C53.9406 22.3542 54.0839 21.5664 54.3703 20.7852C54.6698 19.9909 54.9953 19.2487 55.3469 18.5586C55.7115 17.8555 55.9979 17.2435 56.2062 16.7227C56.2714 16.5534 56.382 16.293 56.5383 15.9414C56.7076 15.5898 56.8833 15.2318 57.0656 14.8672L57.7297 13.5C57.951 13.1354 58.2049 12.875 58.4914 12.7188C58.7779 12.5625 59.0708 12.4844 59.3703 12.4844C59.8651 12.4844 60.2883 12.6471 60.6398 12.9727C61.0044 13.2852 61.1867 13.6888 61.1867 14.1836C61.1737 14.3008 61.1542 14.418 61.1281 14.5352C61.1151 14.6523 61.076 14.7695 61.0109 14.8867C60.7245 15.4076 60.4771 15.8958 60.2687 16.3516C60.0604 16.7943 59.8456 17.2435 59.6242 17.6992C59.4419 18.0768 59.2141 18.5391 58.9406 19.0859C58.6672 19.6328 58.4263 20.1862 58.218 20.7461C58.0096 21.293 57.9055 21.7812 57.9055 22.2109C57.9055 22.5625 57.9901 22.7969 58.1594 22.9141C58.3417 23.0182 58.5956 23.0703 58.9211 23.0703C59.4419 23.0703 60.0148 22.9076 60.6398 22.582C61.2779 22.2565 61.8833 21.8529 62.4562 21.3711C63.0552 20.8893 63.6086 20.401 64.1164 19.9062C64.6242 19.3984 65.0018 18.9883 65.2492 18.6758C65.4966 18.4284 65.757 18.3047 66.0305 18.3047C66.2648 18.3047 66.4536 18.4089 66.5969 18.6172C66.7531 18.8255 66.8312 19.0924 66.8312 19.418C66.8312 19.7174 66.7531 20.0365 66.5969 20.375C66.4536 20.7135 66.2128 21.0326 65.8742 21.332C65.0148 22.2044 64.1164 23.0378 63.1789 23.832C62.2414 24.6133 61.2779 25.2513 60.2883 25.7461C59.3117 26.2409 58.3286 26.4883 57.3391 26.4883Z" fill="white"/>
</svg>
